STARTFONT 2.1
COMMENT
COMMENT  This font is used for displaying yahoo weather codes on an 8x8 display
COMMENT  https://www.igorkromin.net/fp-content/images/photoframe/.thumbs/conditions.png
COMMENT
COMMENT  Produced with bdfedit, a tcl/tk font editing program
COMMENT  http://hea-www.harvard.edu/~fine/Tech/bdfedit.html
COMMENT
FONT UNTITLED
SIZE 12 72 72
FONTBOUNDINGBOX 8 8 0 8
STARTPROPERTIES 11
FOUNDRY "Fine"
FAMILY_NAME ""
WEIGHT_NAME "Medium"
SLANT "R"
SETWIDTH_NAME "Normal"
SPACING "c"
CHARSET_REGISTRY "ISO-8859"
CHARSET_ENCODING "1"
COPYRIGHT "Designer of this font retains full rights under the law"
FONT_ASCENT  16
FONT_DESCENT -8
ENDPROPERTIES
CHARS 49
STARTCHAR C000
ENCODING 0
SWIDTH 666 0
DWIDTH 8 0
BBX 8 7 0 9
BITMAP
3e
41
3e
44
7c
90
60
ENDCHAR
STARTCHAR C001
ENCODING 1
SWIDTH 666 0
DWIDTH 8 0
BBX 8 8 0 8
BITMAP
1c
7e
ff
ff
7e
a5
6c
4b
ENDCHAR
STARTCHAR C002
ENCODING 2
SWIDTH 666 0
DWIDTH 8 0
BBX 6 8 1 8
BITMAP
18
30
78
4c
c8
78
30
60
ENDCHAR
STARTCHAR C003
ENCODING 3
SWIDTH 666 0
DWIDTH 8 0
BBX 8 8 0 8
BITMAP
1c
7e
ff
ff
7e
4a
ca
94
ENDCHAR
STARTCHAR C004
ENCODING 4
SWIDTH 666 0
DWIDTH 8 0
BBX 8 8 0 8
BITMAP
1c
7e
ff
ff
7e
4a
ca
94
ENDCHAR
STARTCHAR C005
ENCODING 5
SWIDTH 666 0
DWIDTH 8 0
BBX 8 8 0 8
BITMAP
1c
7e
ff
ff
7e
44
ee
44
ENDCHAR
STARTCHAR C006
ENCODING 6
SWIDTH 666 0
DWIDTH 8 0
BBX 8 8 0 8
BITMAP
1c
7e
ff
ff
7e
aa
4a
b5
ENDCHAR
STARTCHAR C007
ENCODING 7
SWIDTH 666 0
DWIDTH 8 0
BBX 8 8 0 8
BITMAP
1c
7e
ff
ff
7e
4a
e5
4a
ENDCHAR
STARTCHAR C010
ENCODING 8
SWIDTH 666 0
DWIDTH 8 0
BBX 8 8 0 8
BITMAP
1c
7e
ff
ff
7e
02
10
84
ENDCHAR
STARTCHAR C011
ENCODING 9
SWIDTH 666 0
DWIDTH 8 0
BBX 8 8 0 8
BITMAP
1c
7e
ff
ff
7e
02
10
84
ENDCHAR
STARTCHAR C012
ENCODING 10
SWIDTH 666 0
DWIDTH 8 0
BBX 8 8 0 8
BITMAP
1c
76
e3
f7
7e
08
52
84
ENDCHAR
STARTCHAR C013
ENCODING 11
SWIDTH 666 0
DWIDTH 8 0
BBX 8 8 0 8
BITMAP
1c
7e
ff
ff
7e
08
52
84
ENDCHAR
STARTCHAR C014
ENCODING 12
SWIDTH 666 0
DWIDTH 8 0
BBX 8 8 0 8
BITMAP
1c
7e
ff
ff
7e
08
52
84
ENDCHAR
STARTCHAR C015
ENCODING 13
SWIDTH 666 0
DWIDTH 8 0
BBX 8 8 0 8
BITMAP
95
62
92
05
50
25
52
05
ENDCHAR
STARTCHAR C016
ENCODING 14
SWIDTH 666 0
DWIDTH 8 0
BBX 8 8 0 8
BITMAP
95
62
92
05
50
25
52
05
ENDCHAR
STARTCHAR C017
ENCODING 15
SWIDTH 666 0
DWIDTH 8 0
BBX 8 8 0 8
BITMAP
05
62
12
f5
00
f5
12
65
ENDCHAR
STARTCHAR C020
ENCODING 16
SWIDTH 666 0
DWIDTH 8 0
BBX 8 7 0 9
BITMAP
42
24
99
7e
99
24
42
ENDCHAR
STARTCHAR C021
ENCODING 17
SWIDTH 666 0
DWIDTH 8 0
BBX 8 8 0 8
BITMAP
1c
7e
ff
ff
66
18
db
c3
ENDCHAR
STARTCHAR C022
ENCODING 18
SWIDTH 666 0
DWIDTH 8 0
BBX 8 8 0 8
BITMAP
1c
7e
ff
ff
7e
89
20
85
ENDCHAR
STARTCHAR C023
ENCODING 19
SWIDTH 666 0
DWIDTH 8 0
BBX 8 6 0 9
BITMAP
dd
00
b7
b7
00
fb
ENDCHAR
STARTCHAR C024
ENCODING 20
SWIDTH 666 0
DWIDTH 8 0
BBX 8 8 0 8
BITMAP
55
aa
55
aa
55
aa
55
aa
ENDCHAR
STARTCHAR C025
ENCODING 21
SWIDTH 666 0
DWIDTH 8 0
BBX 8 8 0 8
BITMAP
24
18
bd
7e
7e
b7
00
fb
ENDCHAR
STARTCHAR C026
ENCODING 22
SWIDTH 666 0
DWIDTH 8 0
BBX 8 8 0 8
BITMAP
1c
62
81
8d
7e
1f
3f
7e
ENDCHAR
STARTCHAR C027
ENCODING 23
SWIDTH 666 0
DWIDTH 8 0
BBX 8 8 0 8
BITMAP
0e
01
ff
fe
00
fe
01
0e
ENDCHAR
STARTCHAR C030
ENCODING 24
SWIDTH 666 0
DWIDTH 8 0
BBX 8 7 0 8
BITMAP
06
01
fe
00
fe
01
06
ENDCHAR
STARTCHAR C031
ENCODING 25
SWIDTH 666 0
DWIDTH 8 0
BBX 6 8 1 8
BITMAP
30
48
48
48
48
84
fc
78
ENDCHAR
STARTCHAR C032
ENCODING 26
SWIDTH 666 0
DWIDTH 8 0
BBX 8 5 0 10
BITMAP
1c
7e
ff
ff
7e
ENDCHAR
STARTCHAR C033
ENCODING 27
SWIDTH 666 0
DWIDTH 8 0
BBX 8 8 0 8
BITMAP
ff
e3
81
00
00
81
ff
ff
ENDCHAR
STARTCHAR C034
ENCODING 28
SWIDTH 666 0
DWIDTH 8 0
BBX 8 5 0 10
BITMAP
1c
7e
ff
ff
7e
ENDCHAR
STARTCHAR C035
ENCODING 29
SWIDTH 666 0
DWIDTH 8 0
BBX 8 8 0 8
BITMAP
ff
e3
9d
7e
7e
81
ff
ff
ENDCHAR
STARTCHAR C036
ENCODING 30
SWIDTH 666 0
DWIDTH 8 0
BBX 8 5 0 10
BITMAP
1c
62
81
81
7e
ENDCHAR
STARTCHAR C037
ENCODING 31
SWIDTH 666 0
DWIDTH 8 0
BBX 5 8 2 8
BITMAP
c0
60
30
38
38
30
60
c0
ENDCHAR
STARTCHAR C040
ENCODING 32
SWIDTH 666 0
DWIDTH 8 0
BBX 8 8 0 8
BITMAP
81
5a
3c
7e
7e
3c
5a
81
ENDCHAR
STARTCHAR C041
ENCODING 33
SWIDTH 666 0
DWIDTH 8 0
BBX 5 8 2 8
BITMAP
c0
60
30
38
38
30
60
c0
ENDCHAR
STARTCHAR C042
ENCODING 34
SWIDTH 666 0
DWIDTH 8 0
BBX 8 8 0 8
BITMAP
81
5a
3c
7e
7e
3c
5a
81
ENDCHAR
STARTCHAR C043
ENCODING 35
SWIDTH 666 0
DWIDTH 8 0
BBX 8 8 0 8
BITMAP
1c
7e
ff
ff
7e
0b
cb
d4
ENDCHAR
STARTCHAR C044
ENCODING 36
SWIDTH 666 0
DWIDTH 8 0
BBX 6 8 1 8
BITMAP
30
48
78
78
78
fc
fc
78
ENDCHAR
STARTCHAR C045
ENCODING 37
SWIDTH 666 0
DWIDTH 8 0
BBX 8 8 0 8
BITMAP
1c
7e
ff
ff
7e
4a
ca
94
ENDCHAR
STARTCHAR C046
ENCODING 38
SWIDTH 666 0
DWIDTH 8 0
BBX 8 8 0 8
BITMAP
1c
7e
ff
ff
7e
4a
ca
94
ENDCHAR
STARTCHAR C047
ENCODING 39
SWIDTH 666 0
DWIDTH 8 0
BBX 8 8 0 8
BITMAP
1c
7e
ff
ff
7e
4a
ca
94
ENDCHAR
STARTCHAR C050
ENCODING 40
SWIDTH 666 0
DWIDTH 8 0
BBX 8 8 0 8
BITMAP
1c
7e
ff
ff
7e
08
52
84
ENDCHAR
STARTCHAR C051
ENCODING 41
SWIDTH 666 0
DWIDTH 8 0
BBX 8 7 0 9
BITMAP
66
bd
db
7e
db
bd
66
ENDCHAR
STARTCHAR C052
ENCODING 42
SWIDTH 666 0
DWIDTH 8 0
BBX 8 8 0 8
BITMAP
95
62
92
55
50
55
52
a5
ENDCHAR
STARTCHAR C053
ENCODING 43
SWIDTH 666 0
DWIDTH 8 0
BBX 8 7 0 9
BITMAP
66
bd
db
7e
db
bd
66
ENDCHAR
STARTCHAR C054
ENCODING 44
SWIDTH 666 0
DWIDTH 8 0
BBX 8 5 0 10
BITMAP
1c
7e
ff
ff
7e
ENDCHAR
STARTCHAR C055
ENCODING 45
SWIDTH 666 0
DWIDTH 8 0
BBX 8 8 0 8
BITMAP
1c
7e
ff
ff
7e
4a
ca
94
ENDCHAR
STARTCHAR C056
ENCODING 46
SWIDTH 666 0
DWIDTH 8 0
BBX 8 8 0 8
BITMAP
95
62
92
55
50
55
52
a5
ENDCHAR
STARTCHAR C057
ENCODING 47
SWIDTH 666 0
DWIDTH 8 0
BBX 8 8 0 8
BITMAP
1c
7e
ff
ff
7e
4a
ca
94
ENDCHAR
STARTCHAR C377
ENCODING 255
SWIDTH 666 0
DWIDTH 8 0
BBX 8 8 0 8
BITMAP
60
90
10
10
20
40
00
40
ENDCHAR
ENDFONT
